# xmcd
#
# Track frame offsets:
# 150
# 19959
# 37078
# 58934
# 75724
# 94248
# 111649
# 126850
# 145801
# 167432
# 187225
# 205978
# 219998
#
# Disc length: 3173 seconds
#
# Revision: 0
# Processed by: cddbd v1.5.1PL0 Copyright (c) Steve Scherf et al.
# Submitted via: Audion 3.0.2 (http://www.panic.com/audion/)
#
DISCID=c70c630d
DTITLE=Flynn - Let the show begin
DYEAR=1900
DGENRE=
TTITLE0=You
TTITLE1=Human
TTITLE2=Let There Be More Love
TTITLE3=Any Other Way
TTITLE4=Let the show begin
TTITLE5=Lose Yourself
TTITLE6=Sleep With Angels
TTITLE7=Let Yourself Go
TTITLE8=As I Roved
TTITLE9=Pompeii
TTITLE10=Runaway
TTITLE11=Time To Move On
TTITLE12=Pompeii (Demo)
EXTD=
EXTT0=
EXTT1=
EXTT2=
EXTT3=
EXTT4=
EXTT5=
EXTT6=
EXTT7=
EXTT8=
EXTT9=
EXTT10=
EXTT11=
EXTT12=
PLAYORDER=
